<svg width="210" height="54" viewBox="0 0 210 54" fill="none" xmlns="http://www.w3.org/2000/svg">
<path d="M38.1561 6.25168C34.8159 3.50441 30.5143 4.07476 23.1252 7.06061L15.9154 9.97446C11.995 11.5584 9.17291 13.0267 7.31223 14.6982C7.49716 14.5076 7.68916 14.3156 7.88257 14.1222L14.1239 7.88084C24.0584 -2.05224 28.7906 -2.59576 38.1561 6.25168Z" fill="#00977B"/>
<path d="M10.771 39.9348C9.4609 39.6482 8.1988 39.3108 6.99175 38.9282C-2.07733 29.6008 -2.32298 24.8756 6.25058 15.7981C3.50331 19.1383 4.07507 23.4399 7.06092 30.829L9.97478 38.0388C10.2444 38.7023 10.5084 39.3348 10.771 39.9348Z" fill="#00977B"/>
<path d="M41.3312 9.38015C37.7933 9.53544 31.5463 9.6625 24.1812 12.5128L18.9436 14.629C10.1244 18.1923 8.95268 20.9537 12.5159 29.7743L14.6321 35.0091C15.6938 37.6377 16.6919 39.3431 17.786 40.9342C15.3394 40.7577 12.9889 40.4175 10.7738 39.9332C10.5098 39.3332 10.2473 38.7008 9.97902 38.0387L7.06517 30.8289C4.07932 23.4384 3.50756 19.1382 6.25482 15.798C6.25482 15.7966 6.25623 15.7966 6.25623 15.7966C6.59505 15.438 6.94799 15.0723 7.31505 14.6982C9.17573 13.0267 11.9978 11.5585 15.9182 9.97449L23.1281 7.06064C30.5186 4.07479 34.8188 3.50444 38.159 6.25171C38.1646 6.25453 38.1688 6.25877 38.1745 6.263C38.5246 6.59477 38.8804 6.93782 39.2432 7.29499C39.8601 7.94016 41.3312 9.38015 41.3312 9.38015Z" fill="#1E6A56"/>
<path d="M15.7997 47.7021C19.1399 50.4494 23.4415 49.879 30.8306 46.8932L38.0404 43.9793C41.9608 42.3953 44.7829 40.9271 46.6436 39.2556C46.4586 39.4462 46.2666 39.6382 46.0732 39.8316L39.8319 46.073C29.8974 56.006 25.1652 56.5496 15.7997 47.7021Z" fill="#00977B"/>
<path d="M43.1834 14.019C44.4935 14.3056 45.7556 14.643 46.9626 15.0256C56.0317 24.3531 56.2774 29.0782 47.7038 38.1557C50.4511 34.8155 49.8793 30.5139 46.8935 23.1248L43.9796 15.915C43.71 15.2515 43.4474 14.619 43.1834 14.019Z" fill="#00977B"/>
<path d="M12.6246 44.5736C16.1625 44.4183 22.4095 44.2912 29.7746 41.4409L35.0122 39.3247C43.8314 35.7614 45.0031 33 41.4399 24.1794L39.3236 18.9446C38.262 16.316 37.2639 14.6106 36.1698 13.0195C38.6164 13.196 40.9669 13.5362 43.182 14.0205C43.446 14.6205 43.7085 15.2529 43.9768 15.915L46.8906 23.1248C49.8765 30.5153 50.4482 34.8155 47.701 38.1557C47.701 38.1572 47.6996 38.1572 47.6996 38.1572C47.3607 38.5157 47.0078 38.8814 46.6407 39.2555C44.7801 40.927 41.958 42.3952 38.0375 43.9792L30.8277 46.8931C23.4372 49.8789 19.137 50.4493 15.7968 47.702C15.7912 47.6992 15.787 47.6949 15.7813 47.6907C15.4312 47.3589 15.0754 47.0159 14.7126 46.6587C14.0957 46.015 12.6246 44.5736 12.6246 44.5736Z" fill="#1E6A56"/>
<path d="M36.1133 24.0665H29.8861V17.8393C29.8861 17.036 29.56 16.3089 29.0348 15.7809C28.5082 15.2543 27.7812 14.9282 26.9765 14.9282C25.3685 14.9282 24.0655 16.2313 24.0655 17.8393V29.8871H36.1133C36.9166 29.8871 37.6437 29.561 38.1717 29.0358C38.6982 28.5093 39.0244 27.7822 39.0244 26.9775C39.0244 25.3709 37.7213 24.0665 36.1133 24.0665Z" fill="#3763AF"/>
<path d="M23.0321 23.5117V30.4406H18.3945C16.4815 30.4406 14.93 28.8891 14.93 26.9762C14.93 25.0632 16.4815 23.5117 18.3945 23.5117H23.0321Z" fill="#00977B"/>
<path d="M23.512 30.9219H30.4409V35.5595C30.4409 37.4724 28.8894 39.0239 26.9765 39.0239C25.0635 39.0239 23.512 37.4724 23.512 35.5595V30.9219Z" fill="#00977B"/>
<path d="M98.0186 44.6722C97.1037 46.3507 95.7216 47.1907 93.8737 47.1907C92.5749 47.1907 91.4666 46.7418 90.5476 45.8425C89.6243 44.9362 89.1627 43.835 89.1627 42.539C89.1627 41.2289 89.6187 40.1235 90.5292 39.2256C91.4356 38.3306 92.5466 37.8831 93.861 37.8831C95.2826 37.8831 96.4671 38.4181 97.4129 39.4868C97.6741 39.779 97.8647 40.0642 97.9833 40.3423H96.9739C96.2369 39.2454 95.1937 38.6962 93.844 38.6962C92.8191 38.6962 91.9297 39.0845 91.1772 39.8609C90.4361 40.6247 90.0662 41.5211 90.0662 42.5517C90.0662 43.5654 90.4445 44.4548 91.1998 45.2185C91.9607 45.9865 92.8473 46.3705 93.861 46.3705C94.4906 46.3705 95.0821 46.2152 95.6369 45.9074C96.1508 45.6152 96.6082 45.203 97.0092 44.6722H98.0186Z" fill="black"/>
<path d="M104.969 46.1561C104.284 46.845 103.464 47.1895 102.509 47.1895C101.571 47.1895 100.759 46.8493 100.074 46.1674C99.3851 45.4869 99.0407 44.6794 99.0407 43.7448C99.0407 42.7792 99.3767 41.9491 100.05 41.2559C100.728 40.5557 101.547 40.2056 102.509 40.2056C103.455 40.2056 104.274 40.55 104.963 41.239C105.652 41.9279 105.996 42.7481 105.996 43.6982C105.996 44.6512 105.653 45.47 104.969 46.1561ZM104.38 41.7726C103.865 41.2376 103.245 40.9707 102.521 40.9707C101.777 40.9707 101.148 41.2474 100.637 41.8023C100.139 42.3401 99.8891 42.9839 99.8891 43.7335C99.8891 44.462 100.145 45.0916 100.656 45.6225C101.171 46.1575 101.792 46.4243 102.521 46.4243C103.273 46.4243 103.903 46.1504 104.41 45.6041C104.901 45.069 105.146 44.4225 105.146 43.6615C105.146 42.9317 104.891 42.3034 104.38 41.7726Z" fill="black"/>
<path d="M112.286 47.0286V43.3693C112.286 43.0121 112.238 42.6846 112.143 42.3839C112.036 42.031 111.872 41.75 111.65 41.5411C111.247 41.1613 110.765 40.9707 110.208 40.9707C109.646 40.9707 109.162 41.1613 108.758 41.5411C108.54 41.7472 108.378 42.0197 108.271 42.3599C108.179 42.6521 108.135 42.9684 108.135 43.3044V47.0286H107.285V40.3764H108.135V41.2263H108.159C108.598 40.5458 109.282 40.2056 110.208 40.2056C111.138 40.2056 111.865 40.502 112.387 41.0964C112.886 41.6667 113.136 42.4248 113.136 43.3707V47.03H112.286V47.0286Z" fill="black"/>
<path d="M119.704 47.0286V43.3693C119.704 43.0121 119.656 42.6846 119.562 42.3839C119.455 42.031 119.291 41.75 119.069 41.5411C118.665 41.1613 118.184 40.9707 117.626 40.9707C117.064 40.9707 116.58 41.1613 116.176 41.5411C115.959 41.7472 115.797 42.0197 115.689 42.3599C115.598 42.6521 115.554 42.9684 115.554 43.3044V47.0286H114.704V40.3764H115.554V41.2263H115.578C116.017 40.5458 116.7 40.2056 117.626 40.2056C118.557 40.2056 119.284 40.502 119.806 41.0964C120.304 41.6667 120.554 42.4248 120.554 43.3707V47.03H119.704V47.0286Z" fill="black"/>
<path d="M128.721 44.0118H122.663C122.695 44.6655 122.97 45.2316 123.489 45.7102C124.003 46.1859 124.591 46.4231 125.247 46.4231C125.769 46.4231 126.249 46.2848 126.684 46.0066C127.136 45.7186 127.451 45.3318 127.629 44.849H128.531C128.285 45.5464 127.862 46.1097 127.26 46.5417C126.659 46.9737 125.991 47.1897 125.258 47.1897C124.3 47.1897 123.479 46.8466 122.799 46.1619C122.126 45.4843 121.79 44.6669 121.79 43.7083C121.79 42.754 122.126 41.9323 122.799 41.2434C123.479 40.5502 124.295 40.2043 125.246 40.2043C126.213 40.2043 127.036 40.5587 127.716 41.2674C128.392 41.969 128.731 42.802 128.731 43.7676L128.721 44.0118ZM127.86 43.2453C127.75 42.5874 127.455 42.0453 126.975 41.6175C126.491 41.1855 125.919 40.9695 125.258 40.9695C124.6 40.9695 124.029 41.1855 123.542 41.6175C123.062 42.0453 122.769 42.5874 122.662 43.2453H127.86Z" fill="black"/>
<path d="M136.616 45.0678C135.899 46.4809 134.796 47.1882 133.308 47.1882C132.318 47.1882 131.477 46.855 130.782 46.1901C130.081 45.5167 129.732 44.6894 129.732 43.7068C129.732 42.7327 130.085 41.9026 130.79 41.2179C131.491 40.5403 132.33 40.2029 133.308 40.2029C134.041 40.2029 134.703 40.3949 135.297 40.7789C135.907 41.1756 136.346 41.7092 136.616 42.3826H135.677C135.181 41.441 134.399 40.9695 133.331 40.9695C132.567 40.9695 131.919 41.2306 131.388 41.7544C130.85 42.2767 130.581 42.9205 130.581 43.6843C130.581 44.4565 130.846 45.1059 131.377 45.6325C131.908 46.1591 132.558 46.4231 133.331 46.4231C134.428 46.4231 135.21 45.9713 135.677 45.0678H136.616Z" fill="black"/>
<path d="M139.525 41.1432V47.0288H138.676V41.1432H137.274V40.3766H138.676V38.0247H139.525V40.3766H141.118V41.1432H139.525Z" fill="black"/>
<path d="M146.707 41.143V47.0286H145.857V40.3765L145.868 40.128C145.873 40.032 145.878 39.9487 145.887 39.8781C145.902 39.6918 145.931 39.5252 145.97 39.3798C146.117 38.8292 146.423 38.4311 146.891 38.1854C147.275 37.9835 147.781 37.8791 148.411 37.8706V38.6612C147.275 38.6612 146.707 39.2174 146.707 40.3299V40.3765H148.411V41.143H146.707Z" fill="black"/>
<path d="M154.856 46.1561C154.171 46.845 153.351 47.1895 152.396 47.1895C151.458 47.1895 150.646 46.8493 149.961 46.1674C149.272 45.4869 148.928 44.6794 148.928 43.7448C148.928 42.7792 149.264 41.9491 149.937 41.2559C150.615 40.5557 151.434 40.2056 152.396 40.2056C153.342 40.2056 154.161 40.55 154.85 41.239C155.539 41.9279 155.883 42.7481 155.883 43.6982C155.883 44.6512 155.54 45.47 154.856 46.1561ZM154.267 41.7726C153.752 41.2376 153.132 40.9707 152.408 40.9707C151.664 40.9707 151.035 41.2474 150.524 41.8023C150.026 42.3401 149.776 42.9839 149.776 43.7335C149.776 44.462 150.032 45.0916 150.543 45.6225C151.058 46.1575 151.679 46.4243 152.408 46.4243C153.16 46.4243 153.79 46.1504 154.297 45.6041C154.788 45.069 155.034 44.4225 155.034 43.6615C155.034 42.9317 154.778 42.3034 154.267 41.7726Z" fill="black"/>
<path d="M159.922 41.1063C158.655 41.2093 158.022 41.887 158.022 43.1378V47.0286H157.172V40.3764H158.022V41.3392H158.046C158.22 40.9397 158.471 40.6503 158.8 40.4724C159.07 40.3298 159.444 40.2409 159.922 40.2056V41.1063Z" fill="black"/>
<path d="M164.4 47.0288V38.0247H165.303V46.2156H169.021V47.0302H164.4V47.0288Z" fill="black"/>
<path d="M169.817 39.5635V38.0247H170.667V39.5635H169.817ZM169.817 47.0288V40.3766H170.667V47.0288H169.817Z" fill="black"/>
<path d="M173.566 41.143V47.0286H172.716V40.3765L172.727 40.128C172.731 40.032 172.737 39.9487 172.745 39.8781C172.761 39.6918 172.789 39.5252 172.829 39.3798C172.975 38.8292 173.282 38.4311 173.749 38.1854C174.133 37.9835 174.64 37.8791 175.27 37.8706V38.6612C174.133 38.6612 173.566 39.2174 173.566 40.3299V40.3765H175.27V41.143H173.566Z" fill="black"/>
<path d="M182.666 44.0118H176.608C176.639 44.6655 176.914 45.2316 177.434 45.7102C177.948 46.1859 178.535 46.4231 179.191 46.4231C179.714 46.4231 180.194 46.2848 180.629 46.0066C181.08 45.7186 181.395 45.3318 181.573 44.849H182.475C182.229 45.5464 181.806 46.1097 181.205 46.5417C180.603 46.9737 179.935 47.1897 179.203 47.1897C178.244 47.1897 177.424 46.8466 176.743 46.1619C176.07 45.4843 175.734 44.6669 175.734 43.7083C175.734 42.754 176.07 41.9323 176.743 41.2434C177.424 40.5502 178.24 40.2043 179.19 40.2043C180.157 40.2043 180.98 40.5587 181.661 41.2674C182.337 41.969 182.676 42.802 182.676 43.7676L182.666 44.0118ZM181.803 43.2453C181.693 42.5874 181.398 42.0453 180.918 41.6175C180.434 41.1855 179.862 40.9695 179.201 40.9695C178.543 40.9695 177.972 41.1855 177.485 41.6175C177.005 42.0453 176.712 42.5874 176.605 43.2453H181.803Z" fill="black"/>
<path d="M66.2415 33.4859H62.2942V15.3562H66.2415V33.4859Z" fill="#656868"/>
<path d="M85.1505 18.6116H75.8343C74.8037 18.6116 74.0612 18.7881 73.6094 19.1396C73.1478 19.5165 72.9176 20.125 72.9176 20.9622C72.9176 21.5989 73.1139 22.0901 73.5092 22.4332C73.9369 22.7607 74.5313 22.9231 75.295 22.9231H80.287C82.3651 22.9231 83.8404 23.317 84.7128 24.1047C85.5754 24.9179 86.0074 26.2421 86.0074 28.0774C86.0074 29.9296 85.509 31.2919 84.5109 32.163C83.4973 33.0425 81.9077 33.483 79.7463 33.483H69.6989V30.2642H79.1533C80.2347 30.2642 80.9971 30.1004 81.4418 29.7743C81.8696 29.4637 82.0827 28.94 82.0827 28.203C82.0827 27.4816 81.8766 26.9409 81.4672 26.5809C81.0564 26.2703 80.3689 26.115 79.4046 26.115H74.9534C72.8908 26.115 71.3831 25.6958 70.4273 24.8572C69.4546 24.0101 68.969 22.6944 68.969 20.9099C68.969 19.0069 69.48 17.5994 70.5036 16.686C71.5087 15.798 73.0984 15.3533 75.2682 15.3533H85.1505V18.6116Z" fill="#656868"/>
<path d="M87.6648 24.2445C87.6648 21.1344 88.406 18.8177 89.8897 17.2916C91.348 15.774 93.5941 15.0159 96.6294 15.0159C99.6717 15.0159 101.922 15.7909 103.382 17.3424C104.84 18.8855 105.57 21.2445 105.57 24.4209C105.57 27.6143 104.84 29.9818 103.382 31.5249C101.907 33.0834 99.6562 33.8627 96.6294 33.8627C93.5447 33.8627 91.2817 33.0834 89.8403 31.5249C88.3904 29.9818 87.6648 27.555 87.6648 24.2445ZM96.6294 18.109C95.02 18.109 93.8087 18.6243 92.9956 19.6535C92.1909 20.684 91.7885 22.22 91.7885 24.2628C91.7885 26.4736 92.1739 28.1014 92.9447 29.1489C93.724 30.195 94.9522 30.7188 96.628 30.7188C98.2797 30.7188 99.4981 30.195 100.287 29.1489C101.075 28.1197 101.469 26.54 101.469 24.4139C101.469 22.2878 101.075 20.6996 100.287 19.6535C99.5009 18.6243 98.2812 18.109 96.6294 18.109Z" fill="#656868"/>
<path d="M108.008 25.1622C108.008 22.8159 108.146 21.1091 108.423 20.0446C108.683 18.9802 109.164 18.1049 109.869 17.4174C110.556 16.7298 111.474 16.2145 112.622 15.8715C113.754 15.5284 115.153 15.3562 116.822 15.3562H122.567V18.5242H116.507C114.914 18.5242 113.733 18.8686 112.962 19.5547C112.166 20.2592 111.768 21.3858 111.768 22.9373H122.567V26.0799H111.768V33.4859H108.008V25.1622Z" fill="#656868"/>
<path d="M128.854 15.3562V22.7241H135.781V15.3562H139.541V33.4859H135.781V25.9175H128.854V33.4859H125.095V15.3562H128.854Z" fill="#656868"/>
<path d="M150.63 18.4733C149.072 18.4733 147.948 18.9716 147.26 19.9697C146.573 20.9594 146.23 22.6055 146.23 24.9109C146.23 26.8803 146.557 28.2737 147.211 29.0911C147.865 29.9085 149.004 30.3165 150.63 30.3165H156.842V33.4844H150.455C149.014 33.4844 147.907 33.363 147.136 33.1202C146.348 32.8943 145.595 32.4835 144.873 31.8877C143.96 31.1663 143.268 30.2035 142.799 28.9965C142.338 27.8148 142.108 26.3989 142.108 24.7471C142.108 21.5622 142.795 19.1947 144.17 17.6432C145.545 16.1171 147.674 15.3547 150.557 15.3547H156.843V18.4733H150.63Z" fill="#00977B"/>
<path d="M164.725 15.3562H168.749L176.393 33.4859H172.193L170.546 29.1857H162.75L161.153 33.4859H157.155L164.725 15.3562ZM166.586 18.9886L163.983 25.9415H169.313L166.586 18.9886Z" fill="#00977B"/>
<path d="M177.662 15.3562H186.953C189.116 15.3562 190.704 15.7924 191.718 16.6635C192.715 17.5599 193.214 18.9435 193.214 20.8126C193.214 22.1707 192.904 23.2945 192.284 24.1825C191.673 25.0789 190.771 25.6577 189.58 25.9175L194.057 33.4859H189.808L185.872 26.382H181.421V33.4859H177.661V15.3562H177.662ZM186.048 18.6117H181.422V23.1632H186.061C187.293 23.1632 188.16 22.9782 188.664 22.6098C189.158 22.2752 189.405 21.6921 189.405 20.862C189.405 20.0573 189.163 19.4743 188.675 19.1143C188.181 18.7797 187.306 18.6117 186.048 18.6117Z" fill="#00977B"/>
<path d="M203.79 18.5241C202.457 18.5241 201.431 18.8686 200.709 19.5547C200.349 19.9147 200.064 20.3509 199.854 20.862C199.653 21.3984 199.552 22.0182 199.552 22.7227L210 22.7481V25.8906H199.526C199.526 27.4661 199.855 28.5984 200.513 29.2859C201.171 29.9734 202.262 30.3165 203.788 30.3165H210V33.4844H203.613C202.172 33.4844 201.065 33.363 200.294 33.1202C199.506 32.8943 198.753 32.4835 198.031 31.8877C197.118 31.1663 196.43 30.2035 195.969 28.9965C195.507 27.8148 195.277 26.3989 195.277 24.7471C195.277 21.5622 195.96 19.1947 197.327 17.6432C198.702 16.1171 200.831 15.3547 203.713 15.3547H210V18.5227H203.79V18.5241Z" fill="#00977B"/>
</svg>
